<svg width="135" height="42" viewBox="0 0 135 42" fill="none" xmlns="http://www.w3.org/2000/svg">
<g id="Logo/Colored">
<g id="Logo">
<path id="Combined Shape" fill-rule="evenodd" clip-rule="evenodd" d="M31.5548 1.45312V32.1797C31.5548 32.5859 31.6909 32.9258 31.9632 33.1992C32.2355 33.4727 32.5739 33.6094 32.9785 33.6094H38.2065C38.611 33.6094 38.9494 33.4727 39.2217 33.1992C39.494 32.9258 39.6302 32.5859 39.6302 32.1797V18.0841C41.8552 15.8497 43.9401 13.8516 45.8851 13.8516C48.857 13.8516 50.3429 14.9922 50.3429 18.7266V32.1797C50.3429 32.5859 50.4791 32.9258 50.7513 33.1992C51.0236 33.4727 51.3621 33.6094 51.7666 33.6094H56.9713C57.3914 33.6094 57.7376 33.4727 58.0099 33.1992C58.2822 32.9258 58.4183 32.5859 58.4183 32.1797V18.7266C58.4183 14.914 57.4692 12.082 55.5709 10.2305C53.6726 8.3789 51.2104 7.45312 48.184 7.45312C45.1577 7.45312 42.3064 8.58593 39.6302 10.8516V1.45312C39.6302 1.03125 39.494 0.683595 39.2217 0.410156C38.9494 0.136717 38.611 0 38.2065 0H32.9785C32.5739 0 32.2355 0.136717 31.9632 0.410156C31.6909 0.683595 31.5548 1.03125 31.5548 1.45312ZM3.59425 30.6562C1.19807 28.375 0 25.0899 0 20.8008C0 16.5117 1.20585 13.2149 3.61759 10.9102C6.02934 8.60546 9.37461 7.45312 13.6535 7.45312C17.9324 7.45312 21.2699 8.57421 23.6661 10.8164C26.0623 13.0586 27.2603 16.2734 27.2603 20.4609V21.7969C27.2603 22.2188 27.1242 22.5664 26.8519 22.8398C26.5796 23.1133 26.2334 23.25 25.8133 23.25H8.23878C8.39438 25.1719 8.94284 26.5703 9.8842 27.4453C10.8256 28.3203 12.3309 28.7578 14.4004 28.7578C16.4698 28.7578 17.8857 28.2891 18.6481 27.3516C19.4105 26.4141 20.8713 26.5575 23.1246 26.8735C25.3779 27.1895 25.8862 28.3813 25.8133 28.7578C25.0985 32.4492 21.3536 34.0923 13.6302 34.0782C9.33571 34.0782 5.99044 32.9375 3.59425 30.6562ZM8.1921 18.3047H19.0449C18.8893 14.6172 17.0883 12.7734 13.6418 12.7734C10.1954 12.7734 8.37882 14.6172 8.1921 18.3047ZM68.6643 36.0469L71.7217 36.4453C73.5789 36.4453 74.9621 35.2865 75.8716 32.9689C75.888 32.9271 75.755 32.9055 75.5084 32.8653C74.5682 32.7124 71.9762 32.2906 69.7145 29.4574C67.1222 26.2098 66.737 24.9562 65.7326 21.6877L65.732 21.6854C65.6305 21.3552 65.5227 21.0045 65.4057 20.629L61.9281 9.3087C61.8815 9.1837 61.8581 9.03917 61.8581 8.87511C61.8581 8.71105 61.9554 8.51183 62.1499 8.27745C62.3444 8.04308 62.6361 7.91808 63.0251 7.90245L67.614 7.92188C68.0652 7.92188 68.497 8.07422 68.9093 8.37891C69.3217 8.6836 69.5901 9.0625 69.7145 9.51562L72.772 19.4531C73.5344 21.8906 74.3085 23.5781 75.0943 24.5156C75.88 25.4531 76.8097 25.9219 77.8833 25.9219L82.5278 9.51562C82.6523 9.0625 82.8974 8.6836 83.263 8.37891C83.6287 8.07422 84.0371 7.92188 84.4883 7.92188H89.4129C89.8019 7.92188 90.0898 8.04687 90.2765 8.29688C90.4632 8.54688 90.5566 8.75391 90.5566 8.91797C90.5566 9.08203 90.541 9.21875 90.5099 9.32812L84.395 31.2188C83.3058 35.0938 81.956 37.8594 80.3456 39.5156C78.7352 41.1719 76.6619 42 74.1257 42L73.1508 41.995C71.1245 41.9733 69.6562 41.8813 68.746 41.7188C67.6957 41.5312 67.0383 41.3008 66.7738 41.0273C66.5093 40.7539 66.377 40.4375 66.377 40.0781V37.5C66.377 37.0781 66.5093 36.7305 66.7738 36.457C67.0383 36.1836 67.3806 36.0469 67.8007 36.0469H68.6643ZM93.2172 31.9219C91.1634 30.4844 90.1364 28.4531 90.1364 25.8281C90.1364 23.2031 91.1673 21.1875 93.2289 19.7812C95.2906 18.375 97.9473 17.6719 101.199 17.6719H108.925C108.925 15.8437 108.543 14.5703 107.781 13.8516C107.019 13.1328 105.684 12.7734 103.778 12.7734C101.999 12.7734 100.715 13.1852 99.9255 14.0086L99.7639 14.1914C98.9937 15.1367 96.5692 14.8153 94.4047 14.3984C92.2403 13.9814 92.1002 12.8772 92.2933 12.3026C93.3799 9.06959 97.5233 7.45312 104.724 7.45312C108.427 7.45312 111.399 8.28515 113.639 9.94922C115.88 11.6133 117 14.1875 117 17.6719V32.1797C117 32.6016 116.868 32.9453 116.603 33.2109C116.339 33.4766 115.996 33.6094 115.576 33.6094H111.072C110.652 33.6094 110.309 33.4727 110.045 33.1992C109.78 32.9258 109.648 32.5859 109.648 32.1797V31.4531C107.19 33.2188 104.354 34.0977 101.141 34.0899C97.9279 34.082 95.2867 33.3594 93.2172 31.9219ZM101.759 22.9922H108.925V26.6484C106.7 28.0547 104.389 28.7578 101.993 28.7578C100.795 28.7578 99.8689 28.4844 99.2154 27.9375C98.5619 27.3906 98.2352 26.6953 98.2352 25.8516C98.2352 25.0078 98.5503 24.3203 99.1804 23.7891C99.8106 23.2578 100.67 22.9922 101.759 22.9922Z" fill="url(#paint0_linear_0_91620)"/>
<path id="Oval" fill-rule="evenodd" clip-rule="evenodd" d="M129 21C132.314 21 135 18.3137 135 15C135 11.6863 132.314 9 129 9C125.686 9 123 11.6863 123 15C123 18.3137 125.686 21 129 21Z" fill="#1576D8"/>
</g>
</g>
<defs>
<linearGradient id="paint0_linear_0_91620" x1="0" y1="0" x2="0" y2="42" gradientUnits="userSpaceOnUse">
<stop stop-color="#254A72"/>
<stop offset="1" stop-color="#10243E"/>
</linearGradient>
</defs>
</svg>
